<svg width="640" height="512" xmlns="http://www.w3.org/2000/svg">

 <g>
  <title>Layer 1</title>
  <path id="svg_1" d="m64,64l0,288l512,0l0,-288l-512,0zm-64,0c0,-35.3 28.7,-64 64,-64l512,0c35.3,0 64,28.7 64,64l0,288c0,35.3 -28.7,64 -64,64l-512,0c-35.3,0 -64,-28.7 -64,-64l0,-288zm128,384l384,0c17.7,0 32,14.3 32,32s-14.3,32 -32,32l-384,0c-17.7,0 -32,-14.3 -32,-32s14.3,-32 32,-32z" fill="#cc0000"/>
  <path id="svg_2" d="m420.48,105.33c0,-8.785 -6.362,-15.884 -14.237,-15.884c-7.874,0 -14.235,7.099 -14.235,15.884l0,103.248c0,4.369 -3.204,7.943 -7.118,7.943c-3.916,0 -7.118,-3.574 -7.118,-7.943l0,-87.363c0,-8.787 -6.363,-15.885 -14.237,-15.885c-7.873,0 -14.236,7.098 -14.236,15.885l0,135.017c0,0.744 0,1.538 0.045,2.283l-26.915,-28.592c-7.119,-7.545 -18.374,-7.247 -25.18,0.695c-6.807,7.942 -6.495,20.501 0.622,28.095l50.004,53.114c19.175,20.401 44.666,31.768 71.181,31.768l8.542,0c43.242,0 78.298,-39.115 78.298,-87.363l0,-103.248c0,-8.787 -6.361,-15.885 -14.236,-15.885c-7.874,0 -14.236,7.098 -14.236,15.885l0,55.594c0,4.369 -3.203,7.943 -7.117,7.943c-3.916,0 -7.12,-3.574 -7.12,-7.943l0,-87.363c0,-8.787 -6.361,-15.885 -14.235,-15.885c-7.874,0 -14.237,7.098 -14.237,15.885l0,87.363c0,4.369 -3.202,7.943 -7.117,7.943c-3.915,0 -7.118,-3.574 -7.118,-7.943l0,-103.248z" fill="#282828"/>
  <g stroke="null">
   <!--!Font Awesome Free 6.5.1 by @fontawesome - https://fontawesome.com License - https://fontawesome.com/license/free Copyright 2023 Fonticons, Inc.-->
   <path stroke="null" d="m193.47823,67c-35.21368,0 -63.41078,15.93571 -83.93757,34.90268c-20.39604,18.79375 -34.03699,41.31161 -40.48702,56.77098c-1.43818,3.42098 -1.43818,7.2317 0,10.65268c6.45003,15.45938 20.09098,37.97723 40.48702,56.77098c20.52679,18.96696 48.72388,34.90268 83.93757,34.90268s63.41078,-15.93571 83.93757,-34.90268c20.39604,-18.83705 34.03699,-41.31161 40.5306,-56.77098c1.43818,-3.42098 1.43818,-7.2317 0,-10.65268c-6.49361,-15.45938 -20.13456,-37.97723 -40.5306,-56.77098c-20.52679,-18.96696 -48.72388,-34.90268 -83.93757,-34.90268zm-62.75706,97a62.75706,62.35714 0 1 1 125.51412,0a62.75706,62.35714 0 1 1 -125.51412,0zm62.75706,-27.71429c0,15.28616 -12.50783,27.71429 -27.89203,27.71429c-3.09427,0 -6.0578,-0.51964 -8.847,-1.42902c-2.39697,-0.77946 -5.18617,0.69286 -5.09901,3.20446c0.13074,2.98795 0.56656,5.97589 1.3946,8.96384c5.97064,22.17143 28.93798,35.33571 51.2516,29.40313s35.56233,-28.75357 29.5917,-50.925c-4.83752,-17.97098 -20.83186,-30.05268 -38.61302,-30.78884c-2.52771,-0.08661 -4.00948,2.64152 -3.22502,5.06652c0.91521,2.77143 1.43818,5.71607 1.43818,8.79063z" fill="#282828"/>
  </g>
 </g>
</svg>