<?xml version="1.0" standalone="no"?>
<!DOCTYPE svg PUBLIC "-//W3C//DTD SVG 20010904//EN"
 "http://www.w3.org/TR/2001/REC-SVG-20010904/DTD/svg10.dtd">
<svg version="1.0" xmlns="http://www.w3.org/2000/svg"
 width="640.000000pt" height="640.000000pt" viewBox="0 0 640.000000 640.000000"
 preserveAspectRatio="xMidYMid meet">
<metadata>
Created by potrace 1.14, written by Peter Selinger 2001-2017
</metadata>
<g transform="translate(0.000000,640.000000) scale(0.100000,-0.100000)"
fill="#000000" stroke="none">
<path d="M539 5755 c-3 -2 -18 -6 -35 -9 -167 -30 -355 -176 -433 -338 -76
-157 -71 -36 -68 -1743 1 -841 6 -1543 11 -1560 4 -16 9 -37 11 -45 2 -8 4
-16 5 -17 2 -2 3 -7 4 -11 0 -5 19 -44 40 -86 37 -72 127 -178 196 -229 99
-73 236 -114 386 -117 95 -1 189 -2 202 -1 15 0 247 0 265 0 6 -1 30 0 52 0
22 1 47 1 55 0 21 -1 117 0 160 2 19 1 42 1 50 1 16 -1 249 -1 265 -1 6 1 39
0 75 0 36 -1 116 -1 178 -1 62 0 116 -2 121 -4 4 -3 13 -1 19 3 7 4 33 5 57 1
25 -4 45 -4 45 -1 0 3 27 6 60 6 33 0 60 -2 60 -5 0 -3 71 -4 157 -2 87 1 187
2 223 1 36 0 71 -1 78 0 15 0 247 0 265 0 6 -1 30 0 52 0 22 1 47 1 55 0 21
-1 117 0 160 2 19 1 42 1 50 1 16 -1 249 -1 265 -1 6 1 39 0 75 0 36 -1 116
-1 178 -1 62 0 116 -2 121 -4 4 -3 13 -1 19 3 7 4 33 5 57 1 25 -4 45 -4 45
-1 0 3 27 6 60 6 33 0 60 -2 60 -5 0 -3 71 -4 157 -2 87 1 187 2 223 1 36 0
71 -1 78 0 15 0 247 0 265 0 6 -1 30 0 52 0 22 1 47 1 55 0 21 -1 117 0 160 2
19 1 42 1 50 1 16 -1 249 -1 265 -1 6 1 39 0 75 -1 297 -6 439 40 591 191 59
59 86 96 118 160 22 46 43 98 46 116 3 18 10 44 15 58 10 27 9 3096 -1 3125
-3 8 -11 35 -18 60 -41 146 -176 307 -316 376 -43 21 -82 39 -89 41 -6 1 -38
9 -71 18 -53 13 -378 15 -2706 15 -1455 0 -2648 -2 -2650 -5z m232 -635 c24 0
77 0 117 2 39 2 72 0 72 -4 0 -3 8 -4 18 -2 33 8 222 9 222 1 0 -5 4 -6 10 -2
5 3 46 5 92 5 86 -1 109 -1 131 1 6 1 32 1 57 0 25 -1 52 -1 60 0 8 1 33 1 55
0 69 -2 149 -3 163 -2 13 1 36 1 55 0 9 0 298 0 392 0 11 0 45 0 75 0 74 0 72
0 95 1 19 2 178 1 315 -1 36 0 72 -1 80 0 8 0 44 0 80 0 36 -1 72 -1 80 0 8 0
44 0 80 0 36 -1 72 -1 80 0 8 0 44 0 80 0 36 -1 72 -1 80 0 8 0 44 0 80 0 36
-1 72 -1 80 0 8 0 44 0 80 0 36 -1 72 -1 80 0 8 0 44 0 80 0 36 -1 71 -1 78 0
15 0 247 0 265 0 6 -1 30 0 52 0 22 1 47 1 55 0 8 0 38 0 65 0 28 0 57 0 65 0
8 0 33 0 55 0 22 1 47 1 55 0 8 0 38 0 65 0 28 0 57 0 65 0 8 0 33 0 55 0 22
1 47 1 55 0 8 0 38 0 65 0 28 0 57 0 65 0 8 0 33 0 55 0 22 1 47 1 55 0 8 0
38 0 65 0 28 0 57 0 65 0 8 0 33 0 55 0 22 1 47 1 55 0 8 0 38 0 65 0 28 0 57
0 65 0 8 0 33 0 55 0 22 1 47 1 55 0 8 0 38 0 65 0 28 0 57 0 65 0 8 -1 31 -1
50 0 56 2 154 3 170 2 8 -1 34 -2 57 -2 l42 -1 3 -62 c2 -33 1 -87 -2 -118 -3
-32 -3 -58 0 -58 6 0 3 -196 -4 -222 -2 -10 -1 -18 2 -18 6 0 6 -60 1 -155 -1
-5 -1 -32 0 -60 0 -27 0 -57 0 -65 -1 -8 -1 -33 0 -55 1 -22 1 -47 0 -55 0 -8
-1 -37 0 -65 0 -27 0 -57 0 -65 -1 -8 -1 -33 0 -55 1 -22 1 -49 1 -60 -1 -11
-1 -102 0 -203 0 -100 -2 -187 -5 -192 -3 -6 -3 -10 2 -10 8 0 7 -189 -1 -222
-2 -10 -1 -18 2 -18 6 0 6 -60 1 -155 -1 -5 -1 -32 0 -60 0 -27 0 -57 0 -65
-1 -8 -1 -33 0 -55 1 -22 1 -47 0 -55 0 -8 -1 -37 0 -65 0 -27 0 -57 0 -65 -1
-8 -1 -33 0 -55 1 -22 1 -47 0 -55 0 -8 0 -80 0 -160 0 -80 0 -152 -1 -160 0
-8 0 -37 1 -65 3 -113 5 -106 -31 -105 -56 1 -172 2 -185 1 -16 0 -248 0 -265
0 -7 1 -31 0 -53 0 -22 -1 -47 -1 -55 0 -8 0 -37 0 -65 0 -27 0 -57 0 -65 0
-8 1 -31 0 -50 -1 -37 -1 -222 -1 -330 1 -36 0 -72 1 -80 0 -77 -3 -252 -1
-258 3 -5 3 -14 1 -20 -3 -7 -4 -33 -5 -57 -1 -25 4 -45 4 -45 1 0 -3 -27 -6
-60 -6 -33 0 -60 3 -60 7 0 3 -8 4 -17 2 -26 -7 -343 -10 -343 -4 0 3 -27 3
-60 0 -33 -3 -60 -3 -60 0 0 3 -26 3 -57 0 -32 -3 -79 -3 -106 0 -26 3 -52 3
-57 0 -5 -3 -31 -3 -57 0 -26 3 -92 3 -145 0 -54 -3 -98 -3 -98 0 0 3 -27 3
-60 0 -33 -3 -60 -3 -60 0 0 3 -26 3 -57 0 -32 -3 -79 -3 -106 0 -26 3 -52 3
-57 0 -6 -4 -32 -4 -58 -1 -26 3 -81 4 -122 1 -41 -3 -96 -2 -122 1 -26 3 -52
2 -58 -1 -6 -4 -31 -4 -55 0 -25 4 -45 4 -45 1 0 -3 -27 -6 -60 -6 -33 0 -60
4 -60 8 0 5 -5 5 -10 2 -6 -3 -70 -6 -143 -5 -72 1 -139 1 -147 1 -8 0 -44 0
-80 0 -36 1 -71 1 -77 0 -16 0 -248 0 -265 0 -7 1 -31 0 -53 0 -22 -1 -47 -1
-55 0 -8 0 -37 0 -65 0 -27 0 -57 0 -65 0 -8 1 -31 0 -50 -1 -19 -1 -89 -1
-155 0 -66 0 -123 0 -127 0 -8 -1 -160 -1 -202 0 -22 0 -24 5 -26 45 0 25 -1
51 -1 58 -1 6 0 23 1 37 1 14 1 79 1 145 0 66 0 127 0 135 1 8 1 44 0 80 0 36
0 72 0 80 1 8 1 44 0 80 0 36 0 72 0 80 1 8 0 44 0 80 -1 36 -1 108 -2 160 0
52 0 100 0 105 -1 13 0 99 2 145 1 19 1 42 0 50 0 8 0 38 0 65 0 28 0 57 0 65
-1 8 -1 33 0 55 0 22 1 47 0 55 0 8 0 116 0 240 0 124 0 232 0 240 0 8 0 35 0
60 0 25 0 50 0 55 0 24 0 201 0 215 1 8 1 47 0 85 0 39 0 77 0 85 1 8 1 44 0
80 0 36 0 72 0 80 1 15 0 126 -1 189 -1 30 1 33 24 29 14 -3 30 -1 37 3 7 4
16 6 19 4 4 -2 26 -4 51 -5z"/>
<path d="M1780 5080 c-25 -4 -62 -11 -83 -14 -21 -3 -46 -10 -55 -15 -9 -5
-20 -9 -25 -10 -78 -6 -303 -122 -425 -219 -87 -69 -104 -85 -234 -223 -10
-11 -18 -23 -18 -29 0 -5 -4 -10 -9 -10 -20 0 -143 -189 -202 -310 -22 -47
-44 -92 -49 -100 -17 -34 52 -191 148 -335 26 -38 51 -75 57 -81 5 -6 17 -22
25 -34 8 -12 29 -36 45 -54 17 -18 44 -48 61 -67 60 -66 170 -161 254 -217 87
-58 230 -132 255 -132 8 0 16 -4 19 -9 3 -5 16 -11 28 -14 13 -3 48 -12 78
-20 93 -25 140 -30 285 -31 199 -1 342 32 515 118 145 72 303 192 409 310 14
16 33 36 42 45 29 29 139 179 139 189 0 6 4 12 8 14 10 3 78 120 111 188 12
25 25 65 28 90 4 40 -1 56 -45 140 -27 52 -58 109 -68 126 -61 100 -181 250
-262 328 -53 50 -68 64 -127 114 -135 115 -416 242 -565 257 -9 0 -20 3 -25 7
-15 8 -263 6 -315 -2z m253 -345 c23 -3 65 -14 92 -23 28 -9 52 -17 55 -17 5
-1 68 -35 111 -61 10 -6 39 -29 63 -51 155 -141 231 -349 201 -553 -4 -30 -7
-56 -7 -57 1 -2 -13 -38 -32 -81 -38 -91 -77 -150 -137 -211 -44 -44 -159
-127 -159 -115 0 3 -12 -1 -26 -11 -33 -21 -102 -42 -173 -52 -336 -45 -644
179 -706 517 -3 14 -5 61 -5 106 0 200 98 385 267 504 23 17 46 30 52 30 6 0
11 5 11 10 0 6 5 10 11 10 6 0 25 6 42 14 55 24 100 37 157 43 30 3 56 6 58 8
4 3 78 -3 125 -10z"/>
<path d="M1942 4529 c-22 -8 -23 -12 -16 -62 11 -81 11 -90 2 -127 -35 -136
-147 -221 -283 -215 -33 1 -70 5 -82 8 -29 7 -53 -16 -47 -46 2 -12 7 -38 10
-57 8 -49 51 -133 92 -180 135 -158 371 -190 548 -73 96 62 152 148 181 273 8
38 5 120 -7 170 -35 147 -166 274 -315 306 -46 10 -63 10 -83 3z"/>
<path d="M4032 4859 c-72 -15 -111 -81 -111 -185 0 -38 0 -73 -1 -79 -1 -5 -2
-13 -2 -16 2 -12 3 -140 3 -244 0 -60 0 -132 0 -160 0 -27 0 -54 -1 -60 -1 -5
-2 -14 -1 -18 1 -5 1 -57 1 -115 -1 -59 -1 -120 0 -137 1 -16 2 -36 2 -42 -1
-7 -1 -46 -2 -85 -2 -87 -20 -118 -69 -118 -43 0 -71 31 -71 78 -1 20 -2 238
-3 483 l-2 446 -29 37 c-62 82 -160 81 -223 0 l-28 -37 0 -709 c0 -389 -4
-708 -8 -708 -5 0 -23 15 -39 33 -265 284 -270 288 -344 290 -101 1 -177 -82
-178 -194 0 -63 24 -118 76 -172 47 -48 282 -298 364 -386 125 -135 216 -220
283 -264 95 -63 186 -108 246 -123 17 -4 35 -9 40 -13 12 -7 11 -7 105 -23 74
-13 282 -16 350 -5 113 19 200 56 307 129 100 68 227 223 274 335 11 26 24 57
29 68 53 122 58 205 57 841 l-2 580 -25 37 c-63 93 -184 83 -238 -18 -14 -25
-16 -75 -18 -330 -1 -165 -2 -308 -3 -318 -1 -10 -12 -29 -25 -42 -30 -29 -62
-26 -93 10 l-22 25 0 469 c0 452 -1 471 -20 508 -35 66 -99 93 -166 70 -40
-14 -84 -64 -92 -107 -3 -19 -7 -241 -7 -493 l-1 -459 -29 -23 c-33 -26 -61
-25 -90 5 -20 20 -21 31 -21 573 -1 516 -2 554 -19 590 -29 60 -90 90 -154 76z"/>
<path d="M1314 1281 c-2 -2 -21 -4 -41 -3 -104 4 -224 -73 -279 -178 -24 -46
-28 -66 -28 -130 0 -41 3 -87 6 -101 14 -60 94 -159 149 -185 97 -46 -42 -43
2069 -44 1957 0 1975 0 2035 20 74 25 142 85 181 160 26 49 29 65 28 140 -1
101 -24 158 -88 224 -64 64 -125 89 -223 90 -46 1 -83 3 -83 6 0 6 -197 2
-222 -4 -10 -2 -18 -1 -18 2 0 7 -193 5 -222 -2 -10 -2 -18 -1 -18 2 0 7 -193
5 -222 -2 -10 -2 -18 -1 -18 2 0 7 -193 5 -222 -2 -10 -2 -18 -1 -18 2 0 7
-193 5 -222 -2 -10 -2 -18 -1 -18 2 0 7 -193 5 -222 -2 -10 -2 -18 -1 -18 2 0
7 -193 5 -222 -2 -10 -2 -18 -1 -18 2 0 7 -193 5 -222 -2 -10 -2 -18 -1 -18 2
0 7 -193 5 -222 -2 -10 -2 -18 -1 -18 2 0 7 -193 5 -222 -2 -10 -2 -18 -1 -18
2 0 7 -193 5 -222 -2 -10 -2 -18 -1 -18 2 0 7 -193 5 -222 -2 -10 -2 -18 -1
-18 2 0 7 -193 5 -222 -2 -10 -2 -18 -1 -18 2 0 7 -193 5 -222 -2 -10 -2 -18
-1 -18 2 0 7 -193 5 -222 -2 -10 -2 -18 -1 -18 2 0 7 -119 10 -126 3z"/>
</g>
</svg>
